<?xml version="1.0" encoding="utf-8"?>
<!-- Generator: Adobe Illustrator 21.0.0, SVG Export Plug-In . SVG Version: 6.00 Build 0)  -->
<svg version="1.1" id="Layer_1" xmlns:sketch="http://www.bohemiancoding.com/sketch/ns"
	 xmlns="http://www.w3.org/2000/svg" xmlns:xlink="http://www.w3.org/1999/xlink" x="0px" y="0px" viewBox="0 0 897 452"
	 style="enable-background:new 0 0 897 452;" xml:space="preserve">
<style type="text/css">
	.st0{fill:#FDFDFD;stroke:#7E89A3;stroke-width:2;}
	.st1{fill:#FFFFFF;stroke:#7E89A3;}
	.st2{fill:none;stroke:#7E89A3;}
	.st3{fill:#FEFEFE;stroke:#8492A5;stroke-width:2;}
	.st4{fill:none;stroke:#8492A5;stroke-width:2;}
	.st5{fill:#FDFDFD;stroke:#8492A5;stroke-width:2;}
	.st6{fill:none;stroke:#8492A5;stroke-linecap:square;}
	.st7{fill:#FFFFFF;stroke:#8492A5;}
</style>
<title>IPAD 2</title>
<desc>Created with Sketch.</desc>
<g id="Page-1" sketch:type="MSPage">
	<g id="IPAD" transform="translate(681.000000, 55.000000)" sketch:type="MSLayerGroup">
		<path id="bezel" sketch:type="MSShapeGroup" class="st0" d="M203.3,317.4H12.4c-6.6,0-12-5.4-12-12V12.4c0-6.6,5.4-12,12-12h190.9
			c6.6,0,12,5.4,12,12v292.9C215.3,312,209.9,317.4,203.3,317.4z"/>
		<path id="bezel-2" sketch:type="MSShapeGroup" class="st0" d="M203.3,317.4H12.4c-6.6,0-12-5.4-12-12V12.4c0-6.6,5.4-12,12-12
			h190.9c6.6,0,12,5.4,12,12v292.9C215.3,312,209.9,317.4,203.3,317.4z"/>
		<path id="screen" sketch:type="MSShapeGroup" class="st1" d="M21.3,12.2h173c5.4,0,9.8,4.8,9.8,10.7v271.9
			c0,5.9-4.4,10.7-9.8,10.7h-173c-5.4,0-9.8-4.8-9.8-10.7V22.9C11.5,17,15.9,12.2,21.3,12.2z"/>
		<circle id="camera" sketch:type="MSShapeGroup" class="st2" cx="107" cy="7" r="3">
		</circle>
	</g>
	<g id="Laptop" transform="translate(1.000000, 1.000000)" sketch:type="MSLayerGroup">
		<path id="bezel_1_" sketch:type="MSShapeGroup" class="st3" d="M594,0H98C84.5,0,73,11.1,73,24.8V351h546V24.8
			C619,11.1,607.5,0,594,0z"/>
		<circle id="webcam" sketch:type="MSShapeGroup" class="st4" cx="347" cy="19" r="4">
		</circle>
		<g id="bottom" transform="translate(0.000000, 351.000000)" sketch:type="MSShapeGroup">
			<path id="Shape" class="st5" d="M640.8,31H51.3C20.6,31,0,20.5,0,16V2.4C0,1.1,1.3,0,3,0h686.1c1.7,0,3,1.1,3,2.4v14.1
				C692.1,20.1,676.1,31,640.8,31z"/>
			<path id="Line" class="st6" d="M0.5,14.5h689.7"/>
		</g>
		<rect id="screen_1_" x="95" y="39" sketch:type="MSShapeGroup" class="st7" width="501.1" height="292">
		</rect>
		<path id="touchpad" sketch:type="MSShapeGroup" class="st7" d="M421,352v3.1c0,2.2-4.3,2.9-7.6,2.9H278.8c-3.5,0-7.8-0.7-7.8-2.9
			V352"/>
	</g>
	<g id="iphone" transform="translate(576.000000, 177.000000)" sketch:type="MSLayerGroup">
		<path id="bezel_2_" sketch:type="MSShapeGroup" class="st0" d="M130,256.7c0,8.8-7.2,16-16.1,16H16c-8.9,0-16.1-7.2-16.1-16V14.8
			C0,6,7.2-1.2,16-1.2h97.9c8.9,0,16.1,7.2,16.1,16V256.7L130,256.7z"/>
		<path id="screen_2_" sketch:type="MSShapeGroup" class="st1" d="M16.4,8h97.1c4.1,0,7.4,3.7,7.4,8.4v238.8c0,4.6-3.3,8.4-7.4,8.4
			H16.4c-4.1,0-7.4-3.7-7.4-8.4V16.4C9,11.8,12.3,8,16.4,8z"/>
		<circle id="camera_1_" sketch:type="MSShapeGroup" class="st2" cx="66" cy="14" r="3">
		</circle>
	</g>
</g>
</svg>
